<svg xmlns="http://www.w3.org/2000/svg" viewBox="0 0 1110.93 881"><defs><style>.cls-1{fill:#3ec1f3;}.cls-11,.cls-12,.cls-13,.cls-14,.cls-19,.cls-2,.cls-20,.cls-21,.cls-22,.cls-23,.cls-3,.cls-6,.cls-7{fill:none;}.cls-2,.cls-3{stroke:#4756df;}.cls-11,.cls-12,.cls-13,.cls-19,.cls-2,.cls-20,.cls-21,.cls-23,.cls-6,.cls-7{stroke-linecap:round;}.cls-12,.cls-19,.cls-2,.cls-21,.cls-22,.cls-23,.cls-3{stroke-miterlimit:10;}.cls-11,.cls-12,.cls-13,.cls-19,.cls-2,.cls-20,.cls-21,.cls-22,.cls-23,.cls-3,.cls-6,.cls-7{stroke-width:4px;}.cls-4{fill:#f5ebdd;}.cls-5{fill:#ffb7d5;}.cls-6,.cls-7{stroke:#ffb7d5;}.cls-11,.cls-13,.cls-20,.cls-6,.cls-7{stroke-linejoin:round;}.cls-6{stroke-dasharray:12;}.cls-8{fill:#fff;}.cls-9{fill:#4856df;}.cls-10{fill:#30242a;}.cls-11{stroke:#fff;}.cls-12{stroke:#3ec1f3;}.cls-13{stroke:#30242a;}.cls-15{fill:#4756df;}.cls-16{fill:#eaa58b;}.cls-17{fill:#ff7235;}.cls-18{fill:#ca7358;}.cls-19,.cls-20{stroke:#a15842;}.cls-21{stroke:#000;}.cls-22,.cls-23{stroke:#ff7235;}</style></defs><g id="Layer_2" data-name="Layer 2"><g id="Layer_1-2" data-name="Layer 1"><g id="Layer_12" data-name="Layer 12"><rect class="cls-1" x="424.46" y="119.18" width="154.93" height="229.19"/><path class="cls-1" d="M379.07,119.18h45.39V348.37H322.7V175.55A56.37,56.37,0,0,1,379.07,119.18Z"/><line class="cls-2" x1="321.53" y1="218" x2="422.53" y2="177"/><line class="cls-3" x1="422.63" y1="119.18" x2="422.63" y2="348.37"/><path class="cls-4" d="M991.93,720.57v-88l-53.17-54.09H789.33l-53.17,54.09v81.59H550.06V680.23h0c-59.59-6.42-41.26-50.42-74.26-50.42H417.13a22.23,22.23,0,0,0-12.07,3.5l-82.83-51.19H237l-106.8,66h.23v83.1L58.68,775.55v76.09H1045.1v-77Z"/><path class="cls-5" d="M1080.86,851.66H1023.1c0-15.94,12.93-32.08,28.88-32.08S1080.86,835.72,1080.86,851.66Z"/><path class="cls-5" d="M1110.93,851.66H1068c0-11.84,9.61-23.83,21.45-23.83S1110.93,839.82,1110.93,851.66Z"/><path class="cls-6" d="M268,466.66c28-8.67,64-21.13,173.55,68.46s151,31,139.79,17.46c-9-10.9-59.26,18.51-21.85,58.16,35.55,37.7,139.74,1.64,168.31-21.44,40.66-32.84,98.87-58.67,150.18-60.53"/><line class="cls-7" x1="343.79" y1="648.14" x2="236.98" y2="582.14"/><polyline class="cls-7" points="131.41 648.14 344.02 648.14 344.02 850.66"/><line class="cls-7" x1="127.66" y1="851.04" x2="128.66" y2="732.22"/><line class="cls-7" x1="59.68" y1="775.57" x2="127.43" y2="775.57"/><line class="cls-7" x1="128.81" y1="761.36" x2="342.41" y2="761.36"/><line class="cls-7" x1="733.86" y1="791.62" x2="885.13" y2="791.62"/><line class="cls-7" x1="343.79" y1="648.14" x2="393.63" y2="648.14"/><polyline class="cls-7" points="737.16 632.56 885.59 632.56 885.59 850.66"/><polyline class="cls-7" points="885.59 849.66 885.59 632.56 989.93 632.56"/><line class="cls-7" x1="492.3" y1="682.06" x2="549.06" y2="682.06"/><polyline class="cls-7" points="938.76 850.66 938.76 774.66 1043.53 774.66"/><line class="cls-7" x1="938.18" y1="579.06" x2="885.59" y2="632.56"/><line class="cls-7" x1="885.59" y1="720.57" x2="938.76" y2="774.66"/><line class="cls-7" x1="990.39" y1="718.28" x2="886.05" y2="718.28"/><path class="cls-7" d="M418.25,631.64c-33,0-14.67,44-74.26,50.42H492.53C432.91,675.65,451.25,631.64,418.25,631.64Z"/><polyline class="cls-7" points="343.99 849.66 343.99 682.07 492.5 682.07 492.5 850.66"/><polyline class="cls-7" points="492.3 849.66 492.3 730.65 733.87 730.65 733.87 850.66"/><line class="cls-7" x1="492.73" y1="728.41" x2="548.53" y2="712.31"/><polyline class="cls-7" points="733.87 715.15 733.87 730.65 492.3 730.65"/><path class="cls-5" d="M540.29,758.16h.24a16.35,16.35,0,0,1,16.36,16.36v77.15h-33V774.52a16.35,16.35,0,0,1,16.36-16.36Z"/><path class="cls-5" d="M687.89,758.16h.28a16.35,16.35,0,0,1,16.36,16.36h0v77.15h-33V774.52a16.35,16.35,0,0,1,16.36-16.36Z"/><path class="cls-5" d="M614.09,758.16h.28a16.35,16.35,0,0,1,16.36,16.36v77.15h-33V774.52a16.35,16.35,0,0,1,16.36-16.36Z"/><path class="cls-5" d="M993.63,795.74h.28a16.35,16.35,0,0,1,16.36,16.36v39.56h-33V812.1A16.35,16.35,0,0,1,993.63,795.74Z"/><path class="cls-5" d="M174.28,795.74h.25a16.35,16.35,0,0,1,16.36,16.36v39.56h-33V812.1a16.35,16.35,0,0,1,16.36-16.36Z"/><path class="cls-5" d="M299.87,795.74h.28a16.35,16.35,0,0,1,16.38,16.34v39.58h-33V812.1A16.36,16.36,0,0,1,299.87,795.74Z"/><path class="cls-5" d="M237.07,795.74h.28a16.35,16.35,0,0,1,16.36,16.36v39.56h-33V812.1A16.35,16.35,0,0,1,237.07,795.74Z"/><rect class="cls-5" x="157.91" y="677.48" width="33" height="55.92"/><rect class="cls-5" x="283.51" y="677.48" width="33" height="55.92"/><rect class="cls-5" x="220.71" y="677.48" width="33" height="55.92"/><rect class="cls-5" x="378.44" y="710.48" width="27.42" height="41.25"/><rect class="cls-5" x="430.62" y="710.48" width="27.42" height="41.25"/><rect class="cls-5" x="378.44" y="782.91" width="27.42" height="41.25"/><rect class="cls-5" x="430.62" y="782.91" width="27.42" height="41.25"/><rect class="cls-5" x="769.9" y="655.48" width="27.42" height="41.25"/><rect class="cls-5" x="822.08" y="655.48" width="27.42" height="41.25"/><rect class="cls-5" x="927.51" y="655.48" width="27.42" height="41.25"/><rect class="cls-5" x="769.9" y="727.9" width="27.42" height="41.25"/><rect class="cls-5" x="822.08" y="727.9" width="27.42" height="41.25"/><path class="cls-5" d="M273.2,414.83c0,20.63-22,44.46-30.72,44.46s-30.71-23.83-30.71-44.46a30.72,30.72,0,0,1,61.43,0Z"/><circle class="cls-8" cx="242.48" cy="414.83" r="9.63"/><path class="cls-5" d="M944.26,482.58c0,20.63-22,44.46-30.71,44.46s-30.71-23.83-30.71-44.46a30.71,30.71,0,0,1,61.42,0Z"/><circle class="cls-8" cx="913.55" cy="482.58" r="9.63"/><path class="cls-5" d="M30.07,851.66H87.83c0-15.94-12.93-32.08-28.88-32.08S30.07,835.72,30.07,851.66Z"/><path class="cls-5" d="M0,851.66H42.91c0-11.84-9.61-23.83-21.45-23.83S0,839.82,0,851.66Z"/><path class="cls-9" d="M523.32,284c-71.17,43.51-95.92,164.71-111,208.93-16.31,47.82-52.23,46.73-93.91,60.65s-40.13,44.27-40.13,44.27a278.32,278.32,0,0,0-27.87,21.71L303.18,687c12.45-8.59,30.93-19.36,56.28-34.67C411.82,620.7,458.69,591,488.94,558S598.69,380.3,598.69,380.3Z"/><path class="cls-10" d="M303.18,687,250.4,619.57c-23.6,21-37.74,41-44.85,52.64L280,767.27c10.48-19,2.15-45.74,3-57.41C283.53,702.83,289.91,696.16,303.18,687Z"/><path class="cls-1" d="M199.77,682.69l73.16,93.47a33.84,33.84,0,0,0,7-8.88l-74.4-95.06A109.72,109.72,0,0,0,199.77,682.69Z"/><line class="cls-11" x1="276.12" y1="691" x2="290.29" y2="698.89"/><line class="cls-11" x1="269.81" y1="705.26" x2="284.01" y2="708.48"/><line class="cls-12" x1="295.15" y1="624.72" x2="269.87" y2="644.48"/><line class="cls-12" x1="282.35" y1="608.35" x2="257.07" y2="628.11"/><line class="cls-12" x1="307.95" y1="641.09" x2="282.67" y2="660.85"/><line class="cls-12" x1="320.75" y1="657.46" x2="295.47" y2="677.22"/><line class="cls-12" x1="275.99" y1="598.72" x2="331.46" y2="669.68"/><path class="cls-13" d="M545.35,472.48c-12.05-19-23.84-40-32.8-61.67"/><path class="cls-14" d="M780.27,155l.13-.33-.24.23Z"/><circle class="cls-15" cx="565.18" cy="8.71" r="8.71"/><path class="cls-16" d="M592.83,135.68l-.6-10.12c11.65,1.46,20.28-.27,26.45-3.43l-26.45-21.29s9.16-3.66,3.66-22.92l29.44-10.7c-1.55-4-2.58-13.64-5.55-24l-17.53,7.63a56.93,56.93,0,0,1-17.14,19.83,55,55,0,0,0-9.87-8.08c-.48-.31-1-.6-1.48-.89h0c-.49-.28-1-.55-1.49-.81h-.08c-.5-.25-1-.5-1.51-.72l-.1-.18c-.49-.23-1-.43-1.51-.63h-.14c-.51-.18-1-.35-1.52-.51h-.17c-.5-.15-1-.28-1.52-.39h-.18c-.51-.11-1-.19-1.52-.25h-.2c-.5,0-1-.08-1.51-.09-4.37-.06-8.7,1.72-12.31,6.77A17.15,17.15,0,0,0,546.61,75c.07,10.75,10.07,21,19,24-7.06,14.89-29.87,24.18-38.62,27.27.28,3.41.55,6.58.79,9.41Z"/><path class="cls-16" d="M770.77,197.1c-4.14,0-6.14-3.36-4.47-7.5l14-34.57-.11-.1.24-.23A111.53,111.53,0,0,0,791.21,143c6.32-8.05,8.22-13.9,6-16.29a3.85,3.85,0,0,0-2.38-1.12,7.66,7.66,0,0,0-2.74.16c-7.14,1.56-19.37,11.29-33,27.34-16.49,19.39-48.56,57.76-48.56,57.76-3.34-2.55-8.19-6.87-14-12.08l-46.14,59.32a210.23,210.23,0,0,0,31.54,20.31,33.92,33.92,0,0,1,63-3.95c27.8-20.77,49.76-57.83,60.05-77.35Z"/><path class="cls-5" d="M617.9,148.51H603.8c26.89,16.2,15,46.76,15,46.76s36.73,25.67,11.93,56.84a28.22,28.22,0,0,0,4.58-6.42s5.92,5.44,15,12.4l46.14-59.32C675,179.65,640.23,148.51,617.9,148.51Z"/><path class="cls-17" d="M476.72,198s-27,22.51-8.75,52.65l9.61-54Z"/><path class="cls-17" d="M527.74,135.68V136l1.16-.33Z"/><path class="cls-10" d="M565.53,99c-8.89-3-18.89-13.22-19-24L523.62,85c.89,12.62,2.18,28.53,3.25,41.27C535.7,123.18,558.53,113.89,565.53,99Z"/><path class="cls-10" d="M592.23,100.84l26.45,21.29a24.12,24.12,0,0,0,11.69-12.2c3.9-9.76,1.38-18.16-1.66-29.06,0,0,7.75-5.19,6.54-10-1-3.91-9.83-3.37-9.83-3.37l-.09-.25L595.89,78C601.39,97.18,592.23,100.84,592.23,100.84Z"/><path class="cls-10" d="M585.11,70.66a56.93,56.93,0,0,0,17.14-19.83l-27,11.75A54.63,54.63,0,0,1,585.11,70.66Z"/><path class="cls-15" d="M573.76,61.69h0Z"/><path class="cls-15" d="M572.22,60.85h0Z"/><path class="cls-15" d="M570.63,60.09l-.1-.09Z"/><path class="cls-15" d="M569,59.41h0Z"/><path class="cls-15" d="M564,58.14h0Z"/><path class="cls-15" d="M549.93,64.8c3.61-5,7.94-6.83,12.31-6.77h-.1c-2.51-27.75,3.68-42.84,8.27-50a87.61,87.61,0,0,0-13,2.94C525.6,20.6,522,52,522.84,70.63c.17,3.74.49,8.72.88,14.34l22.91-10A17.21,17.21,0,0,1,549.93,64.8Z"/><path class="cls-15" d="M567.34,58.85h0Z"/><path class="cls-15" d="M565.65,58.42h0Z"/><path class="cls-1" d="M573.71,61.66c-.49-.28-1-.55-1.49-.81C572.73,61.11,573.22,61.38,573.71,61.66Z"/><path class="cls-1" d="M575.24,62.58c-.48-.31-1-.6-1.48-.89C574.26,62,574.76,62.27,575.24,62.58Z"/><path class="cls-1" d="M567.17,58.81c-.5-.15-1-.28-1.52-.39C566.16,58.53,566.67,58.66,567.17,58.81Z"/><path class="cls-1" d="M572.14,60.81c-.5-.25-1-.5-1.51-.72C571.14,60.31,571.64,60.56,572.14,60.81Z"/><path class="cls-1" d="M563.75,58.12c-.5,0-1-.08-1.51-.09A9.57,9.57,0,0,1,563.75,58.12Z"/><path class="cls-1" d="M565.47,58.39c-.51-.11-1-.19-1.52-.25C564.46,58.2,565,58.28,565.47,58.39Z"/><path class="cls-1" d="M568.86,59.36c-.51-.18-1-.35-1.52-.51C567.85,59,568.35,59.18,568.86,59.36Z"/><path class="cls-1" d="M570.53,60c-.49-.23-1-.43-1.51-.63C569.53,59.61,570,59.81,570.53,60Z"/><path class="cls-1" d="M562.14,58h.1a8.56,8.56,0,0,1,1.51.09h.2c.51.06,1,.14,1.52.25h.18c.51.11,1,.24,1.52.39h.17c.51.16,1,.33,1.52.51H569c.51.2,1,.4,1.51.63l.12.05c.51.22,1,.47,1.51.72h.08c.51.26,1,.53,1.49.81h0c.5.29,1,.58,1.48.89l27-11.75L619.77,43c-5.35-18.66-17-39.74-49.37-35.14C565.82,15.18,559.63,30.27,562.14,58Z"/><path class="cls-18" d="M714.15,254.86a33.93,33.93,0,0,0-32.29,23.54c14.72,7.48,30.29,12.08,42.38,7.63a82.8,82.8,0,0,0,20.66-11.58A33.92,33.92,0,0,0,714.15,254.86Z"/><path class="cls-17" d="M622.53,311.24c33-21.55,10-58.24,8.2-59.13,24.75-31.17-11.92-56.84-11.92-56.84s11.88-30.56-15-46.76H593.59l-.76-12.83h-63.9l-1.16.33,1.08,12.5H508.23l-30.65,48.15-9.61,54,.49.81c-.33.61-.66,1.22-1,1.83-6.2,12.2-7.11,22.58-5.52,31,3.31,17.61,17.49,26.89,17.49,26.89h143.1Z"/><polygon class="cls-10" points="479.47 327.31 622.48 327.31 622.48 314.45 622.48 311.24 479.47 311.24 479.47 314.45 479.47 327.31"/><line class="cls-19" x1="464.53" y1="195.27" x2="618.81" y2="195.27"/><line class="cls-19" x1="468.21" y1="252.11" x2="631.53" y2="252.11"/><line class="cls-19" x1="595.89" y1="154.93" x2="595.55" y2="149.51"/><line class="cls-19" x1="578.47" y1="152.18" x2="577.56" y2="137.51"/><line class="cls-19" x1="564.72" y1="152.18" x2="563.81" y2="137.51"/><line class="cls-19" x1="550.97" y1="152.18" x2="550.06" y2="137.51"/><line class="cls-20" x1="708.61" y1="210.08" x2="697.65" y2="223.69"/><path class="cls-19" d="M579.39,124.68a57.73,57.73,0,0,0,12.52,2.87"/><path class="cls-4" d="M791.21,143c0,2.69,2,4.59,5.07,4.59h29.91c4.14,0,8.86-3.36,10.54-7.51l9.12-22.58c1.67-4.14-.33-7.5-4.47-7.5H811.46c-4.14,0-8.86,3.36-10.53,7.5l-3.72,9.21C799.43,129.11,797.53,135,791.21,143Z"/><path class="cls-15" d="M852.8,95.34h-8.08L844,97.09a7.76,7.76,0,0,1-6.55,4.67H822c-2.57,0-3.82-2.09-2.78-4.67l.71-1.75h-8.08c-4.15,0-8.86,3.36-10.54,7.51l-9.26,22.91a7.66,7.66,0,0,1,2.74-.16,3.85,3.85,0,0,1,2.38,1.12l3.72-9.21c1.67-4.14,6.39-7.5,10.53-7.5h29.92c4.14,0,6.14,3.36,4.47,7.5l-9.12,22.58c-1.68,4.15-6.4,7.51-10.54,7.51H796.28c-3.11,0-5-1.9-5.07-4.59A110.72,110.72,0,0,1,780.4,154.7l-.13.33-14,34.57c-1.67,4.14.33,7.5,4.47,7.5h40.92c4.14,0,8.86-3.36,10.53-7.5l35-86.75C859,98.7,857,95.34,852.8,95.34Zm-40,88a7.58,7.58,0,0,1-2.55,3.16,6.75,6.75,0,0,1-3.88,1.42H783.53c-2.54,0-3.76-2-2.74-4.58a7.65,7.65,0,0,1,6.44-4.58h22.92c2.48,0,3.7,2.06,2.68,4.59Z"/><path class="cls-1" d="M810.1,178.77H787.18a7.65,7.65,0,0,0-6.44,4.58c-1,2.53.2,4.58,2.74,4.58H806.4a6.75,6.75,0,0,0,3.88-1.42,7.58,7.58,0,0,0,2.55-3.16C813.85,180.82,812.63,178.77,810.1,178.77Z"/><path class="cls-1" d="M822,101.76h15.42A7.76,7.76,0,0,0,844,97.09l.71-1.75H820l-.71,1.75C818.22,99.67,819.47,101.76,822,101.76Z"/><line class="cls-13" x1="642.65" y1="34.84" x2="581.23" y2="62.34"/><path class="cls-21" d="M622.92,92.2c-1.84.49-7.86-.52-8.85-5.69"/><circle class="cls-10" cx="613.45" cy="63.09" r="2.96"/><line class="cls-19" x1="562.64" y1="76.52" x2="573.39" y2="83.36"/><line class="cls-13" x1="585.81" y1="68.76" x2="597.73" y2="77.92"/><line class="cls-13" x1="562.89" y1="99.93" x2="594.98" y2="100.84"/><path class="cls-22" d="M687.53,314.45a13.76,13.76,0,0,1,13.75,13.75h0A13.76,13.76,0,0,1,687.56,342h0"/><path class="cls-22" d="M706.82,314.45a13.75,13.75,0,0,1,13.71,13.75h0A13.76,13.76,0,0,1,706.82,342"/><rect class="cls-10" x="642.65" y="316.28" width="175.1" height="23.84" rx="11.82"/><rect class="cls-10" x="762.07" y="314.92" width="23.84" height="515.66" transform="translate(-89.12 145.96) rotate(-10.19)"/><rect class="cls-22" x="642.65" y="316.28" width="23.84" height="23.84" rx="11.82"/><path class="cls-23" d="M769.09,315.2a13.76,13.76,0,0,1,9.24,13h0a13.74,13.74,0,0,1-8.23,12.59"/><path class="cls-23" d="M785.09,315.2a13.76,13.76,0,0,1,9.24,13h0a13.74,13.74,0,0,1-8.23,12.59"/><rect class="cls-10" x="484.97" y="827.83" width="334.61" height="23.84"/><circle class="cls-10" cx="505.59" cy="851.66" r="29.34"/><circle class="cls-5" cx="505.59" cy="851.66" r="11"/><circle class="cls-10" cx="824.78" cy="851.66" r="29.34" transform="translate(-148 1529.37) rotate(-80.78)"/><circle class="cls-5" cx="824.78" cy="851.66" r="11"/><path class="cls-17" d="M551.43,851.66H459.76a45.84,45.84,0,0,1,91.67,0Z"/><path class="cls-17" d="M870.61,851.66H778.94a45.84,45.84,0,0,1,91.67,0Z"/><path class="cls-9" d="M596.17,748.07h85.74c1-15,3.84-35.94,7.33-64.7,7.36-60.73,12.88-115.94,5.52-160.1s-72.28-196-72.28-196H500.21c-9.6,82.85,70.58,177.06,96.1,216.19,27.6,42.33,4.6,69.93-10.12,111.33s10.12,58.89,10.12,58.89A276,276,0,0,0,596.17,748.07Z"/><path class="cls-10" d="M610,816.83H730.75c-8.53-20-34.69-29.89-43.35-37.77-5.33-4.84-6.57-14.28-5.49-31H596.17C598,780.06,605.17,803.89,610,816.83Z"/><path class="cls-1" d="M614.71,827.83h118.7a33.7,33.7,0,0,0-2.66-11H610A109.68,109.68,0,0,0,614.71,827.83Z"/><line class="cls-12" x1="629.51" y1="716.9" x2="629.51" y2="747"/><line class="cls-12" x1="608.73" y1="716.9" x2="608.73" y2="747"/><line class="cls-12" x1="650.29" y1="716.9" x2="650.29" y2="747"/><line class="cls-12" x1="671.07" y1="716.9" x2="671.07" y2="747"/><line class="cls-12" x1="596.53" y1="715.98" x2="684.53" y2="715.98"/><path class="cls-1" d="M651.78,398.44c-3-7.42-5.86-14.6-8.61-21.35l-45-7.9v.16a19.38,19.38,0,0,0,15.73,22.44Z"/><line class="cls-11" x1="668.32" y1="772.82" x2="682.53" y2="767"/><line class="cls-11" x1="675.66" y1="786.58" x2="687.53" y2="777"/><path class="cls-16" d="M823.25,187s15.74.62,17-13.13c0,0,11.24-5.17,8.3-15.44,0,0,10.28-2.94,7.34-13.22-.19-.65,5.84-1.82,5.54-10.29-.44-12.36-8.82-21.26-12.48-22.18-11-2.75-6.82,15.12-7.34,14.67-6.41-5.5-15.77-8-19.11-5.2-5.82,4.88-1.78,11.4-1.78,11.4s-7.46-1.76-11.11,3.63c-4.44,6.54,3.5,12.64,3.5,12.64s-8.32.93-6.93,8.63c1.54,8.61,14.47,10.53,20.6,19.55Z"/><path class="cls-20" d="M812.77,148.3c8.76,3.29,24,10.58,28.33,22.61"/><path class="cls-20" d="M822.59,133c7.5,4.09,20.75,12.49,26.72,23.45"/><path class="cls-20" d="M843,126c4.93,4.38,10.28,10.21,13.55,17"/><path class="cls-4" d="M529,148.51s32.86,49.49,23.84,97.18C546.39,279.61,469.38,309,424.46,319V292.44S518,269.53,529,228.27c6.67-25-20.17-79.76-20.17-79.76"/><path class="cls-16" d="M746.24,309c-5.5-13.76-22.92-28.42-43.09-35.76-38.76-14.09-132.93,6.42-132.93,6.42l-14.11-30.13-69.43,34c10,19.51,22,35.91,34.26,47.25a33.9,33.9,0,0,1,60,17c38.39-3,80.85-20.55,92.89-31.38,0,0,7.33,6.42,15.58,7.33,0,2.75-12.83,39.42,10.09,31.17,0,0,6.41,8.25,15.58-.91,0,0,6.42,9.16,15.59.91,0,0,5,3.13,11.91-4.58C750.82,341,753.26,326.49,746.24,309Z"/><path class="cls-5" d="M508.8,148.51h-2.27c-18.61,0-49.08,13.76-45.41,49.4a245.64,245.64,0,0,0,25.55,85.54l69.43-34Z"/><path class="cls-18" d="M547.31,318.11a33.85,33.85,0,0,0-26.37,12.59,92.68,92.68,0,0,0,8,6.67c12.91,9.44,31.88,11.86,52,10.29A33.9,33.9,0,0,0,547.31,318.11Z"/><path class="cls-20" d="M700.3,353.36c4-8,13.08-28.74,6.52-42.58"/><line class="cls-20" x1="546.39" y1="282.36" x2="568" y2="277.93"/><path class="cls-20" d="M716.53,353c4.16-8.44,13.16-28.79,6.79-42.22"/><path class="cls-20" d="M732.53,354c4-8.06,12.89-29.46,6.38-43.22"/></g></g></g></svg>