<svg xmlns="http://www.w3.org/2000/svg" viewBox="0 0 366.06 80.43"><defs><style>.test{fill:#fff;}</style></defs><g id="two" data-name="two"><g id="oneTwo" data-name="one"><path class="test" d="M30.91,20.84,41.1,53.49H20ZM23.1,79.89V77H12L18.76,56.4H42.19L48.8,77H37.53v2.92H71.91V77H63.23L38.39.2H34.71L8.79,77H0v2.92Z"/><path class="test" d="M74.73,79.89V77H85.47V4.9H74.73V2h35.89V4.9H99.37V77h14.17c13.75,0,18.61-9.91,19-23.32h3.29l-1.07,26.24Z"/><path class="test" d="M169.51,20.84l10.2,32.65H158.56Zm-7.8,59.05V77H150.64l6.73-20.57h23.42L187.41,77H176.13v2.92h34.38V77h-8.68L177,.2h-3.69L147.39,77h-8.78v2.92Z"/><path class="test" d="M226,3.2l4.09,11.5h-8.39ZM215.18,23.41h3.17l2.4-6.08h10.3l2.41,6.08h3.35L227.82,0h-3.29Z"/><path class="test" d="M238.41,9.3l-.06-2.17h2.91V9.49a5.2,5.2,0,0,1,4.9-2.77c3.41,0,4.49,1.84,5,3a5.52,5.52,0,0,1,5.2-3c2.22,0,5.66,1,5.66,5.76V23.41h-2.92V13a4.24,4.24,0,0,0-.52-2.46,3.43,3.43,0,0,0-3-1.43,3.9,3.9,0,0,0-3.29,1.72,7,7,0,0,0-.68,3.5v9.12h-2.92V12.64c0-2-1.11-3.57-3.38-3.57A4.14,4.14,0,0,0,242,10.85a5.92,5.92,0,0,0-.68,3.31v9.25h-2.91Z"/><path class="test" d="M267.36,13.69c.06-3.59,2.35-4.79,4.23-4.79,3.58,0,3.86,3.24,3.83,4.79Zm11,2.14c.07-2.66.22-9.1-6.72-9.1a7.13,7.13,0,0,0-4.23,1.2c-2.43,1.78-3.05,4.43-3.05,7.64,0,5.16,2.31,8.32,7.19,8.32a6.59,6.59,0,0,0,5.34-2.15,5.68,5.68,0,0,0,1.32-3.41h-2.89a3.43,3.43,0,0,1-3.65,3.37c-3.18,0-4.51-2.49-4.44-5.87Z"/><path class="test" d="M281.08,10.45c0-1.1-.06-2.24-.15-3.32h2.91l.06,3.16a4.23,4.23,0,0,1,3.7-3.22,8.93,8.93,0,0,1,2-.07v3a2.57,2.57,0,0,0-.56-.13,6.55,6.55,0,0,0-.83,0C284.8,9.84,284,12,284,14.76v8.65h-2.92Z"/><path class="test" d="M291.22.08h3.48V3.4h-3.48Zm.33,7.05h2.87V23.41h-2.87Z"/><path class="test" d="M306.85,12.35c-.06-.75-.28-3.4-3.08-3.4-4,0-4,4.89-4,6.12,0,3.33.77,6.44,3.85,6.44,2.47,0,3.3-2,3.36-3.53h2.92a6,6,0,0,1-6.25,5.83,6.75,6.75,0,0,1-5.07-2.11c-.92-1.13-1.84-2.85-1.84-6.21,0-6.77,3.93-8.77,7-8.77a6.11,6.11,0,0,1,4.73,2,5.8,5.8,0,0,1,1.29,3.63Z"/><path class="test" d="M321.14,15.48c-.06,2.28-.1,3.2-.74,4.3a3.66,3.66,0,0,1-3.3,1.76c-2.59,0-3.21-1.79-3.21-2.83,0-3.32,4.41-3.32,5.58-3.32A13.32,13.32,0,0,1,321.14,15.48Zm2.95,7.93a39.1,39.1,0,0,1-.25-4.09l.13-7.79a5,5,0,0,0-.53-2.5c-.83-1.65-3.23-2.39-5.48-2.39-1.64,0-3.83.39-5,1.74a5.44,5.44,0,0,0-1.08,3.08h2.89c0-.64.19-2.75,3.12-2.75a3.44,3.44,0,0,1,2.68,1.07c.56.71.56,1.59.56,3.6-.9-.07-1.36-.1-2.1-.1a11.63,11.63,0,0,0-5.37,1.07,5.43,5.43,0,0,0-2.7,4.77c0,2.71,1.9,4.81,5.45,4.81A5,5,0,0,0,321.2,21a9.51,9.51,0,0,0,.27,2.42Z"/><path class="test" d="M326.79,9l0-1.88h2.88l0,2.61a5,5,0,0,1,5-2.94c1.39,0,5.61.55,5.61,5.53V23.41h-2.95V13.05a3.79,3.79,0,0,0-.84-2.79,3.86,3.86,0,0,0-2.74-1.11c-2.1,0-4,1.59-4,4.87v9.39h-2.88Z"/><path class="test" d="M217.78,28.25h3V48.78h10.34v2.87H217.78Z"/><path class="test" d="M232.44,28.33h3.48v3.32h-3.48Zm.32,7h2.88V51.65h-2.88Z"/><path class="test" d="M250.29,43.37c0,2.67-.9,6.34-4.49,6.34-4.32,0-4.32-5.1-4.32-6.18s0-6.5,4.45-6.5C250,37,250.29,41.75,250.29,43.37Zm-8.75-15.12h-2.88V48.73l-.06,2.92h2.79l.06-2.43A4.86,4.86,0,0,0,243,50.87a6,6,0,0,0,3.46,1,6.43,6.43,0,0,0,5.43-2.78c.77-1.07,1.47-2.79,1.47-5.94,0-3.58-1-5.2-1.81-6.15a6.19,6.19,0,0,0-4.9-2.06c-3.53,0-4.67,2-5.07,2.78Z"/><path class="test" d="M254.86,38.7c0-1.1-.06-2.25-.15-3.33h2.91l.06,3.17a4.21,4.21,0,0,1,3.7-3.22,8.93,8.93,0,0,1,2-.07v3a2.57,2.57,0,0,0-.56-.13,6.55,6.55,0,0,0-.83,0c-3.41,0-4.21,2.14-4.21,4.92v8.64h-2.92Z"/><path class="test" d="M273.74,43.73c-.06,2.28-.09,3.19-.74,4.3a3.66,3.66,0,0,1-3.3,1.76c-2.59,0-3.21-1.79-3.21-2.83,0-3.33,4.41-3.33,5.59-3.33A12.85,12.85,0,0,1,273.74,43.73Zm3,7.92a38.82,38.82,0,0,1-.25-4.09l.12-7.78a5,5,0,0,0-.52-2.5c-.83-1.65-3.23-2.39-5.49-2.39-1.63,0-3.82.39-5,1.74a5.34,5.34,0,0,0-1.07,3.08h2.89c0-.65.18-2.76,3.11-2.76A3.46,3.46,0,0,1,273.19,38c.55.72.55,1.6.55,3.61-.89-.07-1.36-.1-2.1-.1a11.57,11.57,0,0,0-5.36,1.07,5.43,5.43,0,0,0-2.7,4.77c0,2.71,1.9,4.81,5.44,4.81a5,5,0,0,0,4.78-2.94,9,9,0,0,0,.28,2.41Z"/><path class="test" d="M278.87,38.7c0-1.1-.07-2.25-.16-3.33h2.92l.06,3.17a4.2,4.2,0,0,1,3.69-3.22,8.93,8.93,0,0,1,2-.07v3a2.47,2.47,0,0,0-.55-.13,6.63,6.63,0,0,0-.83,0c-3.42,0-4.22,2.14-4.22,4.92v8.64h-2.91Z"/><path class="test" d="M296.85,51.75l-2.22,6.06h-3L294,51.58l-6.43-16.21h3.26l4.83,12.84,4.93-12.84h3.13Z"/><path class="test" d="M226,59.69l4.09,11.51h-8.39ZM215.18,79.9h3.17l2.4-6.08h10.3l2.41,6.08h3.35l-9-23.4h-3.29Z"/><path class="test" d="M240.09,75.05c0,1.23.58,3,3.4,3a3.09,3.09,0,0,0,2.72-1,2.61,2.61,0,0,0,.5-1.52c0-1.59-1.08-1.88-3.41-2.43-3.24-.78-5.94-1.47-5.94-4.87,0-3,2.45-4.92,6-4.92,1.95,0,4.66.58,5.59,2.52a5.41,5.41,0,0,1,.4,2.37h-3c.09-2.47-2-2.67-3-2.67-.44,0-3.16,0-3.16,2.34,0,1.49,1.39,1.85,2.2,2.08,4.3,1.07,5.22,1.33,6.15,2.24a4.15,4.15,0,0,1,1.17,3,5,5,0,0,1-2.1,4.13,8.31,8.31,0,0,1-4.6,1.1c-3.16,0-6.08-1.36-6.05-5.29Z"/><path class="test" d="M254.09,75.05c0,1.23.59,3,3.4,3a3.08,3.08,0,0,0,2.72-1,2.54,2.54,0,0,0,.5-1.52c0-1.59-1.08-1.88-3.4-2.43-3.25-.78-5.95-1.47-5.95-4.87,0-3,2.45-4.92,6-4.92,2,0,4.67.58,5.59,2.52a5.41,5.41,0,0,1,.4,2.37h-3c.1-2.47-1.95-2.67-3-2.67-.43,0-3.16,0-3.16,2.34,0,1.49,1.4,1.85,2.2,2.08,4.3,1.07,5.23,1.33,6.15,2.24a4.15,4.15,0,0,1,1.17,3,5,5,0,0,1-2.09,4.13,8.36,8.36,0,0,1-4.61,1.1c-3.15,0-6.07-1.36-6-5.29Z"/><path class="test" d="M268.32,71.75c0-5.08,3-6.31,4.84-6.31,2.72,0,4.51,2.14,4.51,6.19,0,4.88-2.5,6.53-4.69,6.53C269.68,78.16,268.32,75.09,268.32,71.75Zm-3,.2c0,4.75,2.48,8.48,7.6,8.48s7.83-4,7.83-8.71c0-3.39-1.39-8.5-7.59-8.5S265.32,67.94,265.32,72Z"/><path class="test" d="M292.66,68.84c-.06-.74-.28-3.4-3.08-3.4-4,0-4,4.89-4,6.12,0,3.34.77,6.44,3.85,6.44,2.47,0,3.3-1.94,3.36-3.53h2.92a6,6,0,0,1-6.24,5.83,6.74,6.74,0,0,1-5.08-2.1c-.92-1.14-1.84-2.85-1.84-6.22,0-6.76,3.93-8.76,7-8.76a6.1,6.1,0,0,1,4.74,2,5.83,5.83,0,0,1,1.28,3.62Z"/><path class="test" d="M297.59,56.58h3.48V59.9h-3.48Zm.33,7h2.87V79.9h-2.87Z"/><path class="test" d="M314.12,72c-.06,2.28-.09,3.19-.74,4.3a3.66,3.66,0,0,1-3.3,1.76c-2.59,0-3.21-1.79-3.21-2.83,0-3.33,4.41-3.33,5.58-3.33A13.14,13.14,0,0,1,314.12,72Zm2.95,7.92a40.8,40.8,0,0,1-.24-4.09L317,68a5,5,0,0,0-.52-2.5c-.83-1.65-3.24-2.39-5.49-2.39-1.64,0-3.82.38-5,1.74A5.44,5.44,0,0,0,304.87,68h2.89c0-.65.19-2.76,3.12-2.76a3.44,3.44,0,0,1,2.68,1.07c.56.72.56,1.59.56,3.6-.9-.06-1.36-.09-2.1-.09a11.5,11.5,0,0,0-5.37,1.07,5.43,5.43,0,0,0-2.7,4.77c0,2.71,1.91,4.81,5.45,4.81a5,5,0,0,0,4.78-2.94,9,9,0,0,0,.28,2.41Z"/><path class="test" d="M318.4,63.54h2.74v-3.4l2.87-1v4.37h3.45v2.23H324v9.8c0,.82,0,2.18,2.06,2.18a5.85,5.85,0,0,0,1.39-.16V80a13.5,13.5,0,0,1-2.4.19c-2.65,0-3.92-.8-3.92-3.46V65.77H318.4Z"/><path class="test" d="M329.36,56.58h3.47V59.9h-3.47Zm.32,7h2.87V79.9h-2.87Z"/><path class="test" d="M338.06,71.75c0-5.08,3-6.31,4.84-6.31,2.72,0,4.51,2.14,4.51,6.19,0,4.88-2.5,6.53-4.69,6.53C339.41,78.16,338.06,75.09,338.06,71.75Zm-3,.2c0,4.75,2.48,8.48,7.6,8.48s7.83-4,7.83-8.71c0-3.39-1.39-8.5-7.59-8.5S335.06,67.94,335.06,72Z"/><path class="test" d="M352.61,65.5l0-1.88h2.88l0,2.61a5,5,0,0,1,5-2.93c1.39,0,5.61.55,5.61,5.53V79.9h-3V69.54a3.37,3.37,0,0,0-3.57-3.89c-2.1,0-4,1.59-4,4.87V79.9h-2.88Z"/></g></g></svg>